<?xml version="1.0" encoding="UTF-8"?>
<!DOCTYPE svg PUBLIC "-//W3C//DTD SVG 1.1//EN" "http://www.w3.org/Graphics/SVG/1.1/DTD/svg11.dtd">
<!-- Creator: CorelDRAW 2019 (64-Bit) -->
<svg xmlns="http://www.w3.org/2000/svg" xml:space="preserve" width="210mm" height="297mm" version="1.1" style="shape-rendering:geometricPrecision; text-rendering:geometricPrecision; image-rendering:optimizeQuality; fill-rule:evenodd; clip-rule:evenodd"
viewBox="0 0 21000 29700"
 xmlns:xlink="http://www.w3.org/1999/xlink"
 aria-hidden="true"
 focusable="false"
 data-prefix="fas"
 data-icon="clipboard-list"
 role="img">
 <defs>
  <style type="text/css">
   <![CDATA[
    .fil0 {fill:black}
    .fil1 {fill:white}
   ]]>
  </style>
 </defs>
 <g id="Capa_x0020_1">
  <metadata id="CorelCorpID_0Corel-Layer"/>
  <g id="_2244848112944">
   <path class="fil0" d="M18508.15 8160.78l-3308.38 0c0,-1459.82 -1186.89,-2646.71 -2646.71,-2646.71 -1459.82,0 -2646.7,1186.89 -2646.7,2646.71l-3308.39 0c-1095.9,0 -1985.03,889.13 -1985.03,1985.03l0 14556.88c0,1095.91 889.13,1985.03 1985.03,1985.03l11910.18 0c1095.9,0 1985.03,-889.12 1985.03,-1985.03l0 -14556.88c0,-1095.9 -889.13,-1985.03 -1985.03,-1985.03zm-9925.14 14887.71c-550.02,0 -992.52,-442.48 -992.52,-992.5 0,-550.02 442.5,-992.52 992.52,-992.52 550,0 992.51,442.5 992.51,992.52 0,550.02 -442.51,992.5 -992.51,992.5zm0 -3970.05c-550.02,0 -992.52,-442.5 -992.52,-992.51 0,-550.02 442.5,-992.51 992.52,-992.51 550,0 992.51,442.49 992.51,992.51 0,550.01 -442.51,992.51 -992.51,992.51zm3970.05 -11910.17c550.02,0 992.52,442.49 992.52,992.51 0,550.02 -442.5,992.52 -992.52,992.52 -550.01,0 -992.52,-442.5 -992.52,-992.52 0,-550.02 442.51,-992.51 992.52,-992.51zm5293.41 15218.56c0,181.96 -148.88,330.84 -330.83,330.84l-5955.1 0c-181.96,0 -330.82,-148.89 -330.82,-330.84l0 -661.68c0,-181.96 148.87,-330.84 330.82,-330.84l5955.1 0c181.97,0 330.83,148.88 330.83,330.84l0 661.68zm0 -3970.06c0,181.95 -148.88,330.83 -330.83,330.83l-5955.1 0c-181.96,0 -330.82,-148.88 -330.82,-330.83l0 -661.69c0,-181.95 148.87,-330.84 330.82,-330.84l5955.1 0c181.97,0 330.83,148.89 330.83,330.84l0 661.69zm0 -3894.25c0,181.95 24.38,255.02 -157.57,255.02l-3607.89 0c-69.8,-2.32 -165.62,-48.03 -163.81,-140.74 5.08,-260.9 -12.98,-523.36 -17.4,-775.74 -1.42,-79.7 99.1,-172.29 199.94,-169.98 470.96,10.81 2693.29,-24.14 3585.98,9.78 120.4,4.57 167.67,97.02 160.75,201.12l0 620.54z"/>
   <path class="fil1" d="M3810.24 4139.32c5225.26,5139.45 -4093.84,-4026.6 0,0zm-1074.46 5674.44l7019.12 6903.85 3225.6 535.34c435.4,73.28 808.7,-308.93 730.87,-743.08l-591.33 -3216.27 -7019.12 -6903.84c-125.63,-123.57 -327.1,-121.9 -450.67,3.73l-2918.23 2966.95c-123.54,128.28 -121.87,329.75 3.76,453.32zm6400.15 4191.53c-144.6,147.01 -377.88,148.94 -524.89,4.34l-4116.33 -4048.71c-147.01,-144.6 -148.94,-377.89 -4.34,-524.9 144.6,-147.01 377.88,-148.94 524.89,-4.35l4116.32 4048.72c147.02,144.6 148.95,377.88 4.35,524.9zm2237.41 938.55l-10.54 -1272.48 962.31 -7.96 313.72 1707.4 -817.63 831.29 -1712.37 -285.41 -7.97 -962.31 1272.48 -10.53z"/>
   <path class="fil0" d="M4380.07 4699.8l1266.97 1246.17c129.17,127.05 130.88,334.2 3.84,463.38l-3000.53 3050.63c-127.05,129.17 -334.21,130.88 -463.38,3.84l-1266.98 -1246.17c-513.93,-505.49 -520.79,-1334.12 -15.32,-1850.78l1624.61 -1651.74c505.47,-516.66 1334.1,-523.52 1850.79,-15.33z"/>
  </g>
 </g>
</svg>
